<?xml version="1.0" standalone="no"?>
<!DOCTYPE svg PUBLIC "-//W3C//DTD SVG 20010904//EN"
 "http://www.w3.org/TR/2001/REC-SVG-20010904/DTD/svg10.dtd">
<svg version="1.0" xmlns="http://www.w3.org/2000/svg"
 width="128.000000pt" height="128.000000pt" viewBox="0 0 128.000000 128.000000"
 preserveAspectRatio="xMidYMid meet">

<g transform="translate(0.000000,128.000000) scale(0.100000,-0.100000)"
fill="#000000" stroke="none">
<path d="M725 1218 c-3 -7 -4 -272 -3 -588 3 -538 4 -575 21 -578 16 -3 17 30
17 587 0 524 -2 591 -15 591 -9 0 -18 -6 -20 -12z"/>
<path d="M365 950 c-3 -6 -5 -34 -4 -62 l3 -51 -37 -11 c-85 -25 -137 -96
-137 -186 0 -90 52 -161 136 -186 l37 -10 1 -60 c1 -45 4 -59 16 -59 12 0 15
14 16 59 l1 59 43 13 c65 19 116 74 129 138 6 28 9 29 66 30 46 1 60 4 60 16
0 12 -14 15 -60 16 -57 1 -60 2 -66 30 -13 64 -64 119 -129 138 l-43 13 -1 58
c-1 55 -15 81 -31 55z m57 -160 c113 -32 150 -176 67 -259 -63 -63 -156 -61
-219 4 -30 31 -35 43 -38 99 -4 62 -3 65 33 105 32 35 71 57 110 60 6 1 27 -4
47 -9z"/>
<path d="M853 940 c-13 -5 -23 -13 -23 -16 0 -4 19 -26 43 -49 61 -58 91 -124
95 -210 5 -102 -22 -170 -101 -247 -74 -73 -69 -83 41 -83 64 0 87 5 134 28
112 55 173 153 172 277 0 123 -61 223 -167 275 -57 27 -158 41 -194 25z m172
-59 c82 -36 155 -150 155 -241 0 -106 -88 -224 -189 -254 -56 -16 -101 -21
-101 -10 0 4 16 25 36 47 104 114 112 309 19 431 -19 26 -35 49 -35 52 0 10
71 -6 115 -25z"/>
<path d="M164 866 c-10 -26 60 -96 78 -78 10 10 4 21 -29 54 -36 36 -43 39
-49 24z"/>
<path d="M546 841 c-36 -37 -41 -61 -12 -61 7 0 27 18 44 39 25 31 29 41 18
50 -9 8 -22 1 -50 -28z"/>
<path d="M65 650 c-13 -21 11 -31 61 -28 36 2 49 7 49 18 0 19 -99 27 -110 10z"/>
<path d="M191 466 c-23 -24 -32 -40 -27 -52 6 -15 13 -12 48 23 22 23 37 46
34 52 -11 17 -20 14 -55 -23z"/>
<path d="M514 489 c-3 -6 11 -28 32 -50 28 -29 41 -36 50 -28 11 9 7 19 -18
50 -32 39 -51 48 -64 28z"/>
</g>
</svg>
