<svg width="24" height="24" viewBox="0 0 24 24" fill="none" xmlns="http://www.w3.org/2000/svg">
<path d="M20 14C17.7933 14 16 12.0728 16 9.70149C16 6.83582 20 2 20 2C20 2 24 6.83582 24 9.70149C24 12.0728 22.2067 14 20 14Z" fill="#484848"/>
<path fill-rule="evenodd" clip-rule="evenodd" d="M15.0167 6H2.5C1.11249 6 0 7.11255 0 8.5V19C0 20.3875 1.11249 21.5 2.5 21.5H7.5V18.5H10.5V21.5H20C21.3875 21.5 22.5 20.3875 22.5 19V15.4341C21.7481 15.7959 20.9047 16 20 16V19H13V16H5V19H2.5V8.5H14.1288C14.2742 7.78662 14.5256 7.09741 14.793 6.48682C14.8643 6.32397 14.9391 6.16138 15.0167 6Z" fill="#484848"/>
</svg>
